<svg width="16" height="16" viewBox="0 0 16 16" fill="none" xmlns="http://www.w3.org/2000/svg">
<rect width="16" height="16" rx="2" fill="#E76033"/>
<path fill-rule="evenodd" clip-rule="evenodd" d="M9 12H10.0236C10.8633 12 11.5792 11.8398 12.1713 11.5195C12.7633 11.1966 13.2155 10.7357 13.5277 10.1367C13.8426 9.53776 14 8.82161 14 7.98828C14 7.15755 13.8439 6.44531 13.5317 5.85156C13.2222 5.25521 12.7768 4.79818 12.1955 4.48047C11.6142 4.16016 10.9185 4 10.1084 4H9V5.05469H10.0317C10.6345 5.05469 11.1391 5.16797 11.5455 5.39453C11.9519 5.62109 12.2574 5.95313 12.4619 6.39063C12.6692 6.82812 12.7728 7.36068 12.7728 7.98828C12.7728 8.62109 12.6692 9.15755 12.4619 9.59765C12.2547 10.0352 11.9425 10.3698 11.5253 10.6016C11.1082 10.8307 10.5847 10.9453 9.95498 10.9453H9V12Z" fill="white"/>
<path fill-rule="evenodd" clip-rule="evenodd" d="M7 4H5.92405C5.10722 4 4.40572 4.16016 3.81955 4.48047C3.23339 4.79818 2.78427 5.25521 2.47219 5.85156C2.1574 6.44531 2 7.15755 2 7.98828C2 8.82161 2.15875 9.53776 2.47626 10.1367C2.79105 10.7357 3.24696 11.1966 3.84398 11.5195C4.441 11.8398 5.16285 12 6.00953 12H7V10.9453H6.07873C5.44372 10.9453 4.9159 10.8307 4.49527 10.6016C4.07464 10.3698 3.75985 10.0352 3.5509 9.59765C3.34194 9.15755 3.23746 8.62109 3.23746 7.98828C3.23746 7.36068 3.34194 6.82812 3.5509 6.39063C3.75714 5.95313 4.06515 5.62109 4.47492 5.39453C4.88469 5.16797 5.39352 5.05469 6.00139 5.05469H7V4Z" fill="white"/>
<path fill-rule="evenodd" clip-rule="evenodd" d="M8 9.04C8.57438 9.04 9.04 8.57438 9.04 8C9.04 7.42562 8.57438 6.96 8 6.96C7.42562 6.96 6.96 7.42562 6.96 8C6.96 8.57438 7.42562 9.04 8 9.04ZM8 10C9.10457 10 10 9.10457 10 8C10 6.89543 9.10457 6 8 6C6.89543 6 6 6.89543 6 8C6 9.10457 6.89543 10 8 10Z" fill="white"/>
</svg>
