<svg width="16" height="16" viewBox="0 0 16 16" fill="none" xmlns="http://www.w3.org/2000/svg">
<rect width="16" height="16" rx="2" fill="#E76033"/>
<path d="M8.37925 13.5H12L11.9993 10.0995L12 3H8.26456C7.16869 3 6.22755 3.21021 5.44114 3.63062C4.65473 4.04761 4.05218 4.64746 3.63349 5.43018C3.21116 6.20947 3 7.14429 3 8.23462C3 9.32837 3.21299 10.2683 3.63896 11.0544C4.06129 11.8406 4.67294 12.4456 5.47391 12.8694C6.27488 13.2898 7.24332 13.5 8.37925 13.5ZM12 12.1157H8.47209C7.62014 12.1157 6.91201 11.9653 6.34769 11.6645C5.78337 11.3604 5.36104 10.9211 5.0807 10.3469C4.80036 9.76929 4.66019 9.06518 4.66019 8.23462C4.66019 7.41089 4.80036 6.71191 5.0807 6.1377C5.3574 5.56348 5.77063 5.12768 6.32039 4.83032C6.87015 4.53296 7.55279 4.38428 8.36832 4.38428H11.9973L12 12.1157Z" fill="white"/>
<path d="M9.96505 8.17662C9.96505 9.00505 9.29348 9.67662 8.46505 9.67662C7.63663 9.67662 6.96505 9.00505 6.96505 8.17662C6.96505 7.34819 7.63663 6.67662 8.46505 6.67662C9.29348 6.67662 9.96505 7.34819 9.96505 8.17662Z" fill="white"/>
</svg>
